<svg xmlns="http://www.w3.org/2000/svg" xmlns:xlink="http://www.w3.org/1999/xlink" width="1080" zoomAndPan="magnify" viewBox="0 0 810 809.999993" height="1080" preserveAspectRatio="xMidYMid meet" version="1.0"><path fill="#ffffff" d="M 154.675781 139.078125 L 654.785156 139.078125 L 654.785156 594.046875 L 154.675781 594.046875 Z M 154.675781 139.078125 " fill-opacity="1" fill-rule="nonzero"/><path fill="#e84142" d="M 809.726562 405.375 C 809.726562 628.960938 628.527344 810.210938 405 810.210938 C 181.476562 810.210938 0.273438 628.960938 0.273438 405.375 C 0.273438 181.789062 181.476562 0.539062 405 0.539062 C 628.527344 0.539062 809.726562 181.789062 809.726562 405.375 Z M 290.3125 566.480469 L 211.765625 566.480469 C 195.261719 566.480469 187.109375 566.480469 182.136719 563.296875 C 176.769531 559.816406 173.488281 554.046875 173.089844 547.683594 C 172.792969 541.816406 176.867188 534.652344 185.023438 520.332031 L 378.960938 178.394531 C 387.214844 163.875 391.386719 156.613281 396.65625 153.929688 C 402.324219 151.046875 409.085938 151.046875 414.753906 153.929688 C 420.023438 156.613281 424.199219 163.875 432.449219 178.394531 L 472.320312 248.011719 L 472.523438 248.367188 C 481.4375 263.945312 485.957031 271.84375 487.929688 280.132812 C 490.117188 289.183594 490.117188 298.730469 487.929688 307.78125 C 485.941406 316.136719 481.46875 324.09375 472.421875 339.90625 L 370.546875 520.035156 L 370.285156 520.496094 C 361.3125 536.203125 356.765625 544.160156 350.464844 550.167969 C 343.605469 556.734375 335.351562 561.503906 326.304688 564.195312 C 318.050781 566.480469 308.804688 566.480469 290.3125 566.480469 Z M 488.667969 566.480469 L 601.214844 566.480469 C 617.816406 566.480469 626.171875 566.480469 631.144531 563.203125 C 636.511719 559.71875 639.890625 553.847656 640.191406 547.488281 C 640.480469 541.8125 636.492188 534.929688 628.675781 521.4375 C 628.40625 520.980469 628.136719 520.511719 627.863281 520.035156 L 571.488281 423.566406 L 570.84375 422.480469 C 562.921875 409.082031 558.925781 402.316406 553.789062 399.699219 C 548.125 396.816406 541.457031 396.816406 535.792969 399.699219 C 530.625 402.386719 526.449219 409.445312 518.195312 423.667969 L 462.019531 520.136719 L 461.828125 520.46875 C 453.605469 534.667969 449.496094 541.761719 449.792969 547.585938 C 450.1875 553.953125 453.46875 559.816406 458.839844 563.296875 C 463.710938 566.480469 472.0625 566.480469 488.667969 566.480469 Z M 488.667969 566.480469 " fill-opacity="1" fill-rule="evenodd"/></svg>